<svg width="535" height="105" viewBox="0 0 535 105" fill="none" xmlns="http://www.w3.org/2000/svg">
<path fill-rule="evenodd" clip-rule="evenodd" d="M29.7702 21.3899C39.6702 21.3899 47.2235 23.6449 52.4302 28.1549C57.6369 32.6649 60.2402 39.5765 60.2402 48.8899V81.9999H40.7702V74.2999C37.7635 80.0932 31.8969 82.9899 23.1702 82.9899C18.5502 82.9899 14.5535 82.1832 11.1802 80.5699C7.80684 78.9565 5.25854 76.7749 3.5352 74.0249C1.81185 71.2749 0.950195 68.1399 0.950195 64.6199C0.950195 58.9732 3.11351 54.5916 7.4402 51.4749C11.7669 48.3582 18.4402 46.7999 27.4602 46.7999H39.3402C38.9735 40.4932 34.7569 37.3399 26.6902 37.3399C23.8302 37.3399 20.9335 37.7982 18.0002 38.7149C15.0668 39.6316 12.5735 40.8965 10.5202 42.5099L3.4802 28.3199C6.78021 26.1199 10.7952 24.4149 15.5252 23.2049C20.2552 21.9949 25.0035 21.3899 29.7702 21.3899ZM29.0002 69.7899C31.4202 69.7899 33.5469 69.2032 35.3802 68.0299C37.2135 66.8565 38.5335 65.1332 39.3402 62.8599V57.6899H30.3202C24.2335 57.6899 21.1902 59.7065 21.1902 63.7399C21.1902 65.5732 21.8869 67.0399 23.2802 68.1399C24.6735 69.2399 26.5802 69.7899 29.0002 69.7899ZM104.79 82.9899C98.1902 82.9899 92.2869 81.6699 87.0802 79.0299C81.8735 76.3899 77.8219 72.7232 74.9252 68.0299C72.0285 63.3365 70.5802 58.0199 70.5802 52.0799C70.5802 46.1399 72.0285 40.8416 74.9252 36.1849C77.8219 31.5282 81.8735 27.8982 87.0802 25.2949C92.2869 22.6915 98.1902 21.3899 104.79 21.3899C111.537 21.3899 117.367 22.8382 122.28 25.7349C127.194 28.6316 130.677 32.6465 132.73 37.7799L116.56 46.0299C113.847 40.6765 109.887 37.9999 104.68 37.9999C100.94 37.9999 97.8419 39.2465 95.3852 41.7399C92.9285 44.2332 91.7002 47.6799 91.7002 52.0799C91.7002 56.5532 92.9285 60.0549 95.3852 62.5849C97.8419 65.1149 100.94 66.3799 104.68 66.3799C109.887 66.3799 113.847 63.7032 116.56 58.3499L132.73 66.5999C130.677 71.7332 127.194 75.7482 122.28 78.6449C117.367 81.5416 111.537 82.9899 104.79 82.9899ZM166.06 21.3899C175.96 21.3899 183.513 23.6449 188.72 28.1549C193.927 32.6649 196.53 39.5765 196.53 48.8899V81.9999H177.06V74.2999C174.054 80.0932 168.187 82.9899 159.46 82.9899C154.84 82.9899 150.844 82.1832 147.47 80.5699C144.097 78.9565 141.549 76.7749 139.825 74.0249C138.102 71.2749 137.24 68.1399 137.24 64.6199C137.24 58.9732 139.404 54.5916 143.73 51.4749C148.057 48.3582 154.73 46.7999 163.75 46.7999H175.63C175.264 40.4932 171.047 37.3399 162.98 37.3399C160.12 37.3399 157.224 37.7982 154.29 38.7149C151.357 39.6316 148.864 40.8965 146.81 42.5099L139.77 28.3199C143.07 26.1199 147.085 24.4149 151.815 23.2049C156.545 21.9949 161.294 21.3899 166.06 21.3899ZM165.29 69.7899C167.71 69.7899 169.837 69.2032 171.67 68.0299C173.504 66.8565 174.824 65.1332 175.63 62.8599V57.6899H166.61C160.523 57.6899 157.48 59.7065 157.48 63.7399C157.48 65.5732 158.177 67.0399 159.57 68.1399C160.964 69.2399 162.87 69.7899 165.29 69.7899ZM273.97 0.379883V81.9999H254.06V76.0599C250.174 80.6799 244.344 82.9899 236.57 82.9899C231.144 82.9899 226.194 81.7249 221.72 79.1949C217.247 76.6649 213.709 73.0532 211.105 68.3599C208.502 63.6665 207.2 58.2399 207.2 52.0799C207.2 45.9199 208.502 40.5116 211.105 35.8549C213.709 31.1982 217.247 27.6232 221.72 25.1299C226.194 22.6365 231.144 21.3899 236.57 21.3899C243.684 21.3899 249.184 23.4432 253.07 27.5499V0.379883H273.97ZM240.97 66.3799C244.564 66.3799 247.534 65.1149 249.88 62.5849C252.227 60.0549 253.4 56.5532 253.4 52.0799C253.4 47.6799 252.245 44.2332 249.935 41.7399C247.625 39.2465 244.637 37.9999 240.97 37.9999C237.304 37.9999 234.297 39.2465 231.95 41.7399C229.604 44.2332 228.43 47.6799 228.43 52.0799C228.43 56.5532 229.604 60.0549 231.95 62.5849C234.297 65.1149 237.304 66.3799 240.97 66.3799ZM348.33 52.2999C348.33 52.4465 348.22 54.1699 348 57.4699H304.66C305.54 60.5499 307.245 62.9149 309.775 64.5649C312.305 66.2149 315.477 67.0399 319.29 67.0399C322.15 67.0399 324.625 66.6366 326.715 65.8299C328.805 65.0232 330.914 63.7032 333.04 61.8699L344.04 73.3099C338.247 79.7632 329.777 82.9899 318.63 82.9899C311.664 82.9899 305.54 81.6699 300.26 79.0299C294.98 76.3899 290.892 72.7232 287.995 68.0299C285.099 63.3365 283.65 58.0199 283.65 52.0799C283.65 46.2132 285.062 40.9516 287.885 36.2949C290.709 31.6382 294.614 27.9899 299.6 25.3499C304.587 22.7099 310.197 21.3899 316.43 21.3899C322.37 21.3899 327.76 22.6182 332.6 25.0749C337.44 27.5316 341.272 31.0882 344.095 35.7449C346.919 40.4016 348.33 45.9198 348.33 52.2999ZM316.54 36.2399C313.314 36.2399 310.619 37.1565 308.455 38.9899C306.292 40.8232 304.917 43.3165 304.33 46.4699H328.75C328.164 43.3165 326.789 40.8232 324.625 38.9899C322.462 37.1565 319.767 36.2399 316.54 36.2399ZM435.67 21.3899C443.004 21.3899 448.852 23.5899 453.215 27.9899C457.579 32.3899 459.76 39.0265 459.76 47.8999V81.9999H438.86V51.3099C438.86 47.1299 438.072 44.0499 436.495 42.0699C434.919 40.0899 432.7 39.0999 429.84 39.0999C426.687 39.0999 424.157 40.1999 422.25 42.3999C420.344 44.5999 419.39 47.9365 419.39 52.4099V81.9999H398.49V51.3099C398.49 43.1698 395.484 39.0999 389.47 39.0999C386.243 39.0999 383.677 40.1999 381.77 42.3999C379.864 44.5999 378.91 47.9365 378.91 52.4099V81.9999H358.01V22.3799H377.92V28.6499C380.12 26.2299 382.742 24.4149 385.785 23.2049C388.829 21.9949 392.147 21.3899 395.74 21.3899C399.92 21.3899 403.66 22.1599 406.96 23.6999C410.26 25.2399 412.937 27.5865 414.99 30.7399C417.337 27.7332 420.307 25.4232 423.9 23.8099C427.494 22.1965 431.417 21.3899 435.67 21.3899ZM534.67 22.3799L508.93 84.4199C505.923 91.7533 502.257 96.9049 497.93 99.8749C493.603 102.845 488.324 104.33 482.09 104.33C478.937 104.33 475.765 103.835 472.575 102.845C469.385 101.855 466.8 100.553 464.82 98.9399L472.08 84.3099C473.254 85.4099 474.665 86.2715 476.315 86.8949C477.965 87.5182 479.634 87.8299 481.32 87.8299C483.3 87.8299 484.932 87.4266 486.215 86.6199C487.499 85.8132 488.58 84.5299 489.46 82.7699L463.94 22.3799H485.39L500.02 58.7899L514.76 22.3799H534.67Z" fill="white"/>
</svg>
