<svg width="18" height="23" viewBox="0 0 18 23" fill="none" xmlns="http://www.w3.org/2000/svg">
<path fill-rule="evenodd" clip-rule="evenodd" d="M12.4672 16.0847C12.4672 13.3662 11.6293 12.6866 8.74714 12.654H4.99358V19.127H8.88128C11.663 19.127 12.4672 18.5768 12.4672 16.0847M8.44559 3.7218H4.99358V9.38544H8.71365C11.1936 9.38544 11.9646 8.80285 11.9646 6.50502C11.9646 4.23952 11.1267 3.7218 8.44559 3.7218M17.5951 17.0233C17.5951 21.6189 15.2825 22.8488 9.75272 22.8488C5.32845 22.8488 2.91566 22.8164 0 22.5899V0.258858C2.61367 0.0323302 4.79255 0 8.68024 0C14.7129 0 16.8578 1.22985 16.8578 5.82551C16.8578 9.02945 15.6847 10.68 12.8025 10.9389V11.0684C16.3552 11.3596 17.5951 13.4632 17.5951 17.0233" fill="white"/>
</svg>
